# xmcd
#
# Track frame offsets: 
#        150
#        63584
#        121080
#        166033
#
# Disc length: 2666 seconds
#
# Revision: 1
# Processed by: cddbd v1.5.2PL0 Copyright (c) Steve Scherf et al.
# Submitted via: ExactAudioCopy v1.0b3
#
DISCID=290a6804
DTITLE=Moritz von Oswald Trio - Vertical Ascent
DYEAR=2009
DGENRE=Experimental Electronic
TTITLE0=Patterns 1
TTITLE1=Patterns 2
TTITLE2=Patterns 3
TTITLE3=Patterns 4
EXTD=
EXTT0=
EXTT1=
EXTT2=
EXTT3=
PLAYORDER=
